<svg width="131" height="25" fill="none" xmlns="http://www.w3.org/2000/svg"><path d="M1.527 5.544a1.523 1.523 0 010-3.044h17.975a1.523 1.523 0 010 3.044H1.527zm16.935 12.353a1.518 1.518 0 012.08 2.21c-1.406 1.32-2.995 2.37-4.707 3.085a13.794 13.794 0 01-5.32 1.075c-1.854 0-3.646-.378-5.321-1.075-1.712-.715-3.301-1.766-4.707-3.085a1.518 1.518 0 012.08-2.21c1.14 1.07 2.42 1.919 3.792 2.49 1.301.542 2.7.837 4.156.837 1.455 0 2.854-.295 4.155-.837 1.372-.571 2.652-1.42 3.792-2.49zm.398-7.758a1.517 1.517 0 011.284 2.746 20.77 20.77 0 01-4.583 1.506c-1.6.334-3.3.514-5.046.514a24.82 24.82 0 01-5.046-.514 20.832 20.832 0 01-4.584-1.506 1.517 1.517 0 01-.731-2.015 1.517 1.517 0 012.016-.731c1.164.546 2.486.983 3.917 1.28 1.375.287 2.866.443 4.428.443 1.56 0 3.052-.156 4.427-.443a17.808 17.808 0 003.918-1.28z" fill="#FB4247"/><path d="M41.885 9.851a9.244 9.244 0 00-2.118-.935 7.592 7.592 0 00-2.206-.35c-.818 0-1.475.15-1.972.452-.497.302-.745.765-.745 1.388 0 .623.277 1.096.832 1.417.556.322 1.398.648 2.528.98 1.071.31 1.948.623 2.63.934.681.312 1.26.77 1.738 1.373.477.604.716 1.403.716 2.396 0 1.46-.55 2.571-1.651 3.33-1.1.76-2.47 1.14-4.105 1.14a10.26 10.26 0 01-3.346-.555c-1.08-.37-1.991-.896-2.731-1.578l1.022-1.986c.643.584 1.437 1.052 2.382 1.402.944.35 1.864.526 2.76.526.897 0 1.617-.166 2.162-.497.546-.33.819-.837.819-1.519 0-.701-.288-1.227-.862-1.578-.575-.35-1.447-.701-2.615-1.051-1.033-.293-1.875-.59-2.528-.892a4.487 4.487 0 01-1.665-1.329c-.458-.584-.687-1.344-.687-2.28 0-1.44.526-2.521 1.578-3.242 1.052-.72 2.367-1.081 3.944-1.081.935 0 1.856.131 2.761.394.906.263 1.69.619 2.352 1.066l-.993 2.075zm18.35-.088c.505-1.11 1.226-1.952 2.16-2.527.936-.574 2.047-.872 3.332-.891v2.63c-1.578-.059-2.854.35-3.828 1.227-.973.876-1.529 2.055-1.665 3.535v8.152h-2.717V6.433h2.717v3.33zm49.377-3.33h2.717v15.456h-2.717V6.433zm1.344-6.166c.487 0 .891.166 1.213.498.321.33.481.75.481 1.256s-.16.925-.481 1.256c-.322.331-.726.497-1.213.497-.487 0-.891-.166-1.212-.497-.322-.33-.483-.75-.483-1.256 0-.507.161-.926.483-1.256.321-.332.725-.498 1.212-.498zm17.501 10.285c-1.227-1.188-2.697-1.782-4.412-1.782-1.012 0-1.913.224-2.702.672a4.78 4.78 0 00-1.856 1.9c-.447.817-.672 1.762-.672 2.833 0 1.071.22 2.016.658 2.835a4.831 4.831 0 001.811 1.913c.77.458 1.651.687 2.645.687.993 0 1.889-.166 2.687-.497a5.116 5.116 0 001.987-1.431l1.549 1.577c-.701.877-1.593 1.549-2.673 2.016-1.081.468-2.304.702-3.667.702-1.5 0-2.834-.332-4.003-.994a7.02 7.02 0 01-2.732-2.761c-.652-1.179-.979-2.527-.979-4.047 0-1.52.326-2.873.979-4.061a7.002 7.002 0 012.732-2.776c1.169-.662 2.503-.993 4.003-.993 1.305 0 2.478.2 3.52.599 1.042.4 1.914.979 2.615 1.739l-1.49 1.87zM54.215 20.866c-1.188.76-2.376 1.14-3.564 1.14-1.247 0-2.255-.429-3.024-1.286-.77-.857-1.155-2.094-1.155-3.71V2.81h2.718v4.149h4.762v2.074H49.19v7.48c0 1.987.643 2.98 1.928 2.98.72 0 1.51-.243 2.367-.73l.73 2.103zM83.053 6.433v15.456h-2.717v-3.01c-.585 1.013-1.364 1.792-2.338 2.338-.974.545-2.113.818-3.418.818-1.461 0-2.751-.336-3.872-1.008-1.12-.672-1.99-1.607-2.615-2.805-.623-1.198-.934-2.566-.934-4.105 0-1.52.311-2.869.934-4.047a6.847 6.847 0 012.63-2.761c1.13-.662 2.415-.993 3.857-.993 1.305 0 2.444.268 3.418.803.974.536 1.753 1.31 2.338 2.323v-3.01h2.717zm-7.918 13.264c1.441 0 2.634-.452 3.58-1.358.944-.906 1.484-2.09 1.62-3.55V13.62c-.136-1.46-.676-2.649-1.62-3.564-.946-.916-2.139-1.373-3.58-1.373-1.013 0-1.914.238-2.703.715a5.03 5.03 0 00-1.855 1.973c-.448.837-.672 1.782-.672 2.834s.224 1.996.672 2.834a4.927 4.927 0 001.855 1.957c.79.468 1.69.701 2.703.701zm20.54 1.17c-1.188.759-2.376 1.139-3.564 1.139-1.247 0-2.255-.429-3.025-1.286-.769-.857-1.153-2.094-1.153-3.71V2.81h2.717v4.149h4.762v2.074H90.65v7.48c0 1.987.642 2.98 1.928 2.98.72 0 1.51-.243 2.366-.73l.731 2.103zm10.635 0c-1.188.759-2.376 1.139-3.564 1.139-1.247 0-2.255-.429-3.024-1.286-.77-.857-1.154-2.094-1.154-3.71V2.81h2.717v4.149h4.763v2.074h-4.763v7.48c0 1.987.643 2.98 1.928 2.98.721 0 1.51-.243 2.367-.73l.73 2.103z" fill="#fff"/></svg>